<svg id="icon-numero-1" xmlns="http://www.w3.org/2000/svg" width="12.065" height="12" viewBox="0 0 12.065 12">
  <path id="Caminho_125" data-name="Caminho 125" d="M315.653,335.472l6.178-6.176,2.415,2.418-6.173,6.175Z" transform="translate(-314.343 -327.259)" fill="#8b8b8b"/>
  <path id="Caminho_126" data-name="Caminho 126" d="M347.978,324.266l-2.468-2.468c.112-.108.229-.219.344-.332.25-.246.495-.5.75-.739a1.068,1.068,0,0,1,1.454,0c.4.381.8.767,1.172,1.174a.8.8,0,0,1-.031,1.155c-.389.407-.794.8-1.193,1.2A.166.166,0,0,1,347.978,324.266Z" transform="translate(-337.394 -320.438)" fill="#8b8b8b"/>
  <path id="Caminho_127" data-name="Caminho 127" d="M310.577,359.384l2.445,2.441-.629.154-2.035.494c-.287.07-.451-.092-.386-.385q.3-1.342.6-2.684A.071.071,0,0,1,310.577,359.384Z" transform="translate(-309.957 -350.489)" fill="#8b8b8b"/>
</svg>
