<svg xmlns="http://www.w3.org/2000/svg" width="97.265" height="17.002" viewBox="0 0 97.265 17.002">
  <g id="icon-avaliação" transform="translate(-156.498 -992.998)">
    <g id="Grupo_21" data-name="Grupo 21" transform="translate(2005.672 873.015)">
      <path id="Caminho_316" data-name="Caminho 316" d="M-1840.865,121.06c-.133.288-2.381,4.821-2.393,4.828s-.364.059-.792.121l-1.109.16-1.1.16-1.1.159-.823.119-.458.067a.04.04,0,0,0-.034.044h0c0,.033.243.272,1.79,1.779.983.956,1.86,1.813,1.951,1.9l.15.15a.041.041,0,0,1,.011.035l-.029.174c-.018.107-.058.339-.089.515s-.222,1.293-.425,2.482-.373,2.176-.377,2.195,0,.034.033.034.68-.336,2.452-1.269l2.393-1.259a.04.04,0,0,1,.037,0l2.393,1.259c1.772.932,2.423,1.269,2.452,1.269s.039,0,.033-.033-.173-1.007-.377-2.2-.4-2.306-.425-2.482-.07-.408-.089-.515l-.029-.174a.04.04,0,0,1,.011-.035l.15-.15c.091-.09.969-.947,1.951-1.9,1.547-1.506,1.786-1.745,1.79-1.779h0a.04.04,0,0,0-.034-.044l-.458-.067c-.273-.039-.643-.092-.823-.119l-1.1-.159-1.1-.16-1.109-.16c-.426-.062-.783-.116-.792-.121s-.558-1.108-1.222-2.453a19.829,19.829,0,0,0-1.244-2.449C-1840.825,120.982-1840.83,120.987-1840.865,121.06Z" transform="translate(0 0)" fill="#eed42e" stroke="#eed42e" stroke-linejoin="round" stroke-width="1"/>
    </g>
    <g id="Grupo_22" data-name="Grupo 22" transform="translate(2025.672 873.015)">
      <path id="Caminho_316-2" data-name="Caminho 316" d="M-1840.865,121.06c-.133.288-2.381,4.821-2.393,4.828s-.364.059-.792.121l-1.109.16-1.1.16-1.1.159-.823.119-.458.067a.04.04,0,0,0-.034.044h0c0,.033.243.272,1.79,1.779.983.956,1.86,1.813,1.951,1.9l.15.15a.041.041,0,0,1,.011.035l-.029.174c-.018.107-.058.339-.089.515s-.222,1.293-.425,2.482-.373,2.176-.377,2.195,0,.034.033.034.68-.336,2.452-1.269l2.393-1.259a.04.04,0,0,1,.037,0l2.393,1.259c1.772.932,2.423,1.269,2.452,1.269s.039,0,.033-.033-.173-1.007-.377-2.2-.4-2.306-.425-2.482-.07-.408-.089-.515l-.029-.174a.04.04,0,0,1,.011-.035l.15-.15c.091-.09.969-.947,1.951-1.9,1.547-1.506,1.786-1.745,1.79-1.779h0a.04.04,0,0,0-.034-.044l-.458-.067c-.273-.039-.643-.092-.823-.119l-1.1-.159-1.1-.16-1.109-.16c-.426-.062-.783-.116-.792-.121s-.558-1.108-1.222-2.453a19.829,19.829,0,0,0-1.244-2.449C-1840.825,120.982-1840.83,120.987-1840.865,121.06Z" transform="translate(0 0)" fill="#eed42e" stroke="#eed42e" stroke-linejoin="round" stroke-width="1"/>
    </g>
    <g id="Grupo_23" data-name="Grupo 23" transform="translate(2045.672 873.015)">
      <path id="Caminho_316-3" data-name="Caminho 316" d="M-1840.865,121.06c-.133.288-2.381,4.821-2.393,4.828s-.364.059-.792.121l-1.109.16-1.1.16-1.1.159-.823.119-.458.067a.04.04,0,0,0-.034.044h0c0,.033.243.272,1.79,1.779.983.956,1.86,1.813,1.951,1.9l.15.15a.041.041,0,0,1,.011.035l-.029.174c-.018.107-.058.339-.089.515s-.222,1.293-.425,2.482-.373,2.176-.377,2.195,0,.034.033.034.68-.336,2.452-1.269l2.393-1.259a.04.04,0,0,1,.037,0l2.393,1.259c1.772.932,2.423,1.269,2.452,1.269s.039,0,.033-.033-.173-1.007-.377-2.2-.4-2.306-.425-2.482-.07-.408-.089-.515l-.029-.174a.04.04,0,0,1,.011-.035l.15-.15c.091-.09.969-.947,1.951-1.9,1.547-1.506,1.786-1.745,1.79-1.779h0a.04.04,0,0,0-.034-.044l-.458-.067c-.273-.039-.643-.092-.823-.119l-1.1-.159-1.1-.16-1.109-.16c-.426-.062-.783-.116-.792-.121s-.558-1.108-1.222-2.453a19.829,19.829,0,0,0-1.244-2.449C-1840.825,120.982-1840.83,120.987-1840.865,121.06Z" transform="translate(0 0)" fill="#eed42e" stroke="#eed42e" stroke-linejoin="round" stroke-width="1"/>
    </g>
    <g id="Grupo_24" data-name="Grupo 24" transform="translate(2065.672 873.015)">
      <path id="Caminho_316-4" data-name="Caminho 316" d="M-1840.865,121.06c-.133.288-2.381,4.821-2.393,4.828s-.364.059-.792.121l-1.109.16-1.1.16-1.1.159-.823.119-.458.067a.04.04,0,0,0-.034.044h0c0,.033.243.272,1.79,1.779.983.956,1.86,1.813,1.951,1.9l.15.15a.041.041,0,0,1,.011.035l-.029.174c-.018.107-.058.339-.089.515s-.222,1.293-.425,2.482-.373,2.176-.377,2.195,0,.034.033.034.68-.336,2.452-1.269l2.393-1.259a.04.04,0,0,1,.037,0l2.393,1.259c1.772.932,2.423,1.269,2.452,1.269s.039,0,.033-.033-.173-1.007-.377-2.2-.4-2.306-.425-2.482-.07-.408-.089-.515l-.029-.174a.04.04,0,0,1,.011-.035l.15-.15c.091-.09.969-.947,1.951-1.9,1.547-1.506,1.786-1.745,1.79-1.779h0a.04.04,0,0,0-.034-.044l-.458-.067c-.273-.039-.643-.092-.823-.119l-1.1-.159-1.1-.16-1.109-.16c-.426-.062-.783-.116-.792-.121s-.558-1.108-1.222-2.453a19.829,19.829,0,0,0-1.244-2.449C-1840.825,120.982-1840.83,120.987-1840.865,121.06Z" transform="translate(0 0)" fill="#eed42e" stroke="#eed42e" stroke-linejoin="round" stroke-width="1"/>
    </g>
    <g id="Grupo_25" data-name="Grupo 25" transform="translate(2085.672 873.015)">
      <path id="Caminho_316-5" data-name="Caminho 316" d="M-1840.865,121.06c-.133.288-2.381,4.821-2.393,4.828s-.364.059-.792.121l-1.109.16-1.1.16-1.1.159-.823.119-.458.067a.04.04,0,0,0-.034.044h0c0,.033.243.272,1.79,1.779.983.956,1.86,1.813,1.951,1.9l.15.15a.041.041,0,0,1,.011.035l-.029.174c-.018.107-.058.339-.089.515s-.222,1.293-.425,2.482-.373,2.176-.377,2.195,0,.034.033.034.68-.336,2.452-1.269l2.393-1.259a.04.04,0,0,1,.037,0l2.393,1.259c1.772.932,2.423,1.269,2.452,1.269s.039,0,.033-.033-.173-1.007-.377-2.2-.4-2.306-.425-2.482-.07-.408-.089-.515l-.029-.174a.04.04,0,0,1,.011-.035l.15-.15c.091-.09.969-.947,1.951-1.9,1.547-1.506,1.786-1.745,1.79-1.779h0a.04.04,0,0,0-.034-.044l-.458-.067c-.273-.039-.643-.092-.823-.119l-1.1-.159-1.1-.16-1.109-.16c-.426-.062-.783-.116-.792-.121s-.558-1.108-1.222-2.453a19.829,19.829,0,0,0-1.244-2.449C-1840.825,120.982-1840.83,120.987-1840.865,121.06Z" transform="translate(0 0)" fill="none" stroke="#eed42e" stroke-width="2"/>
    </g>
  </g>
</svg>
